# xmcd CD database file
#
# Track frame offsets:
#	150
#	3468
#	24121
#	39450
#	61546
#	81464
#	104005
#	120587
#	138124
#	159335
#	179288
#	197063
#
# Disc length: 2661 seconds
#
# Revision: 0
# Processed by: cddbd v1.5.1PL0 Copyright (c) Steve Scherf et al.
# Submitted via: CDex 1.51
#
DISCID=8e0a630c
DTITLE=Earl Carter - 495
DYEAR=2005
DGENRE=Jazz
TTITLE0=Inner Loop
TTITLE1=Fly Like An Eagle
TTITLE2=495
TTITLE3=It Never Rains (In Southern California)
TTITLE4=Believe Me
TTITLE5=Out On A Limb
TTITLE6=Cocktail Showers
TTITLE7=The Dream
TTITLE8=The Village
TTITLE9=Steal Your Heart
TTITLE10=Autumn Groove
TTITLE11=Outer Loop
EXTD=YEAR: 2005
EXTT0=
EXTT1=
EXTT2=
EXTT3=
EXTT4=
EXTT5=
EXTT6=
EXTT7=
EXTT8=
EXTT9=
EXTT10=
EXTT11=
PLAYORDER=
